<?xml version="1.0" standalone="no"?>
<!DOCTYPE svg PUBLIC "-//W3C//DTD SVG 20010904//EN"
 "http://www.w3.org/TR/2001/REC-SVG-20010904/DTD/svg10.dtd">
<svg version="1.0" xmlns="http://www.w3.org/2000/svg"
 width="700.000000pt" height="700.000000pt" viewBox="0 0 700.000000 700.000000"
 preserveAspectRatio="xMidYMid meet">
<metadata>
Created by potrace 1.14, written by Peter Selinger 2001-2017
</metadata>
<g transform="translate(0.000000,700.000000) scale(0.100000,-0.100000)"
fill="#000000" stroke="none">
<path d="M3925 6206 c-156 -37 -293 -135 -383 -275 l-40 -60 -38 66 c-49 84
-118 144 -219 193 -290 139 -651 64 -850 -177 -58 -70 -125 -190 -146 -260 -7
-24 -13 -43 -13 -43 -1 -1 -35 -7 -76 -14 -218 -39 -399 -165 -532 -370 -108
-168 -151 -313 -147 -504 l2 -123 -59 -36 c-251 -150 -416 -399 -469 -707 -35
-203 -4 -435 88 -652 l34 -80 -67 -71 c-123 -131 -175 -271 -174 -468 1 -230
52 -363 194 -506 55 -56 113 -102 163 -131 l78 -46 4 -80 c12 -249 174 -435
420 -485 l69 -13 13 -68 c42 -204 149 -345 311 -407 75 -29 220 -36 322 -16
l75 15 43 -30 c58 -40 195 -102 256 -117 64 -16 217 -16 281 0 159 38 312 176
409 367 l27 53 31 -43 c46 -65 146 -165 208 -208 136 -93 249 -132 379 -132
110 0 190 21 317 81 81 39 114 49 177 55 156 14 293 64 405 148 61 45 156 161
206 251 l35 63 73 17 c275 64 463 295 445 548 -4 65 -3 67 25 84 59 34 151
119 195 178 66 90 111 191 135 303 49 238 -12 474 -165 631 l-40 42 36 80 c66
144 82 217 82 381 0 120 -4 160 -24 234 -50 193 -129 335 -251 454 l-76 74 18
67 c51 199 -14 435 -162 581 -37 36 -92 79 -123 95 -40 21 -57 36 -57 50 -1
48 -32 161 -61 221 -48 96 -144 196 -232 239 -77 38 -195 65 -281 65 l-53 0
-24 52 c-128 277 -351 434 -629 444 -68 2 -126 -1 -165 -10z m250 -221 c173
-45 289 -161 370 -368 19 -51 40 -99 45 -107 7 -12 36 -15 152 -15 111 0 155
-4 195 -18 72 -25 136 -85 174 -163 28 -56 33 -78 38 -172 l6 -107 97 -47
c114 -55 172 -108 211 -190 60 -127 60 -236 2 -373 -20 -47 -35 -92 -33 -102
2 -9 36 -39 76 -66 146 -100 243 -235 294 -414 18 -62 23 -103 23 -203 0 -158
-20 -225 -116 -382 -39 -63 -65 -116 -61 -123 4 -7 34 -35 67 -62 186 -154
245 -312 200 -528 -33 -155 -125 -276 -282 -367 -44 -26 -85 -54 -92 -61 -8
-10 -7 -34 5 -93 28 -143 0 -250 -87 -328 -57 -52 -127 -82 -233 -101 -49 -8
-97 -22 -107 -31 -9 -8 -32 -43 -49 -77 -51 -97 -130 -205 -174 -242 -86 -69
-173 -100 -330 -114 -81 -8 -105 -15 -183 -54 -127 -64 -189 -80 -287 -75 -71
4 -91 9 -155 44 -144 77 -256 209 -302 354 -43 140 -49 225 -49 765 l0 510
181 180 c256 255 465 490 505 567 33 63 -22 95 -236 137 -181 36 -200 46 -200
101 0 58 57 266 170 625 116 367 149 485 157 571 7 75 -4 82 -73 50 -82 -39
-206 -135 -397 -309 l-97 -89 5 254 c16 728 38 918 118 1044 30 48 112 126
158 150 85 44 194 55 294 29z m-1096 -24 c187 -58 252 -165 281 -466 6 -60 15
-352 21 -648 l10 -537 -159 -168 c-228 -239 -368 -403 -418 -489 -34 -57 -27
-83 31 -111 41 -20 88 -31 340 -78 44 -9 91 -22 104 -31 21 -13 23 -20 17 -62
-3 -25 -42 -152 -87 -281 -209 -606 -259 -761 -274 -835 -17 -84 -14 -125 10
-125 21 0 195 135 329 256 l119 108 -6 -465 c-5 -335 -11 -484 -21 -534 -46
-232 -164 -436 -294 -512 -38 -22 -61 -28 -133 -31 -109 -5 -170 12 -283 81
-45 27 -96 58 -114 69 l-33 20 -111 -22 c-172 -35 -257 -20 -333 58 -45 47
-70 113 -96 260 -11 64 -28 125 -36 134 -9 10 -38 19 -72 23 -165 19 -233 41
-290 97 -72 70 -99 166 -82 292 6 46 9 91 5 100 -4 9 -54 39 -112 66 -58 28
-129 69 -159 91 -170 131 -230 409 -134 615 33 71 87 133 178 205 35 28 63 57
63 65 0 9 -24 68 -54 132 -97 211 -134 374 -123 542 8 118 31 198 87 315 82
170 179 264 368 356 67 33 122 64 122 69 0 5 -9 46 -20 92 -24 100 -26 230 -5
313 9 33 33 96 54 140 115 240 301 364 547 365 96 0 107 11 127 120 39 208
175 365 358 414 78 21 205 20 278 -3z"/>
<path d="M1017 5321 c-50 -46 -77 -94 -77 -137 0 -58 183 -204 256 -204 38 0
81 35 114 93 43 75 40 95 -24 155 -64 60 -155 120 -195 128 -24 5 -36 -1 -74
-35z"/>
<path d="M6227 4970 c-125 -50 -268 -124 -301 -155 -43 -40 -28 -127 34 -198
l37 -41 56 13 c68 15 317 137 370 181 30 25 37 38 37 66 0 67 -73 174 -119
174 -9 0 -60 -18 -114 -40z"/>
<path d="M263 4517 c-20 -23 -36 -56 -44 -93 -16 -72 -3 -98 66 -136 68 -37
285 -107 354 -114 52 -6 58 -4 83 23 53 56 76 174 40 206 -42 38 -315 133
-412 143 -54 6 -57 5 -87 -29z"/>
<path d="M6475 4125 c-114 -24 -189 -47 -212 -66 -7 -6 -13 -26 -13 -44 0 -44
35 -154 59 -185 l19 -24 94 18 c51 9 129 29 173 44 l80 27 3 45 c6 86 -42 211
-81 209 -7 0 -61 -11 -122 -24z"/>
<path d="M590 3339 c-148 -39 -329 -100 -346 -116 -23 -24 -15 -143 15 -200
20 -40 25 -43 61 -43 78 0 445 106 476 138 24 23 13 119 -21 188 -26 53 -27
54 -68 53 -23 0 -76 -10 -117 -20z"/>
<path d="M6362 3160 c-30 -12 -62 -83 -62 -138 0 -53 22 -108 47 -116 64 -19
179 -30 318 -30 l160 -1 23 45 c25 50 29 130 9 170 -16 32 -82 54 -202 69
-107 13 -261 13 -293 1z"/>
<path d="M6188 2209 c-49 -66 -65 -171 -30 -202 41 -37 202 -97 263 -97 68 0
136 162 95 226 -28 41 -154 96 -235 102 -68 4 -68 4 -93 -29z"/>
<path d="M770 1961 c-69 -22 -158 -66 -195 -95 -22 -18 -27 -30 -27 -64 1 -50
30 -119 65 -151 23 -21 33 -23 82 -18 69 7 194 66 229 108 16 19 26 43 26 63
0 62 -75 177 -114 175 -6 0 -36 -8 -66 -18z"/>
</g>
</svg>
